<svg width="25" height="25" viewBox="0 0 25 25" fill="none" xmlns="http://www.w3.org/2000/svg">
<path d="M11.9795 12.5H5.6445M5.46494 13.3304L4.41831 16.4569C3.84508 18.1692 3.55847 19.0253 3.76416 19.5525C3.94277 20.0104 4.32641 20.3575 4.79979 20.4897C5.34491 20.6418 6.16824 20.2712 7.81491 19.5303L18.3716 14.7798C19.9789 14.0565 20.7825 13.6949 21.0308 13.1925C21.2467 12.756 21.2467 12.2438 21.0308 11.8074C20.7825 11.3051 19.9789 10.9434 18.3716 10.2202L7.7967 5.46148C6.15499 4.72272 5.33415 4.35334 4.78957 4.50487C4.31664 4.63646 3.93304 4.98266 3.7538 5.43967C3.54741 5.96591 3.83096 6.82021 4.39807 8.52882L5.46697 11.7493C5.56437 12.0427 5.61307 12.1895 5.63229 12.3395C5.64935 12.4727 5.64918 12.6075 5.63178 12.7406C5.61217 12.8906 5.56309 13.0372 5.46494 13.3304Z" stroke="#303030" stroke-width="1.7" stroke-linecap="round" stroke-linejoin="round"/>
</svg>
