<svg width="35" height="35" viewBox="0 0 35 35" fill="none" xmlns="http://www.w3.org/2000/svg">
<g filter="url(#filter0_i_109_467)">
<rect width="35" height="35" rx="17.5" fill="#F8F8FF"/>
<path d="M8.125 15.9377H9.16667C10.1374 15.9377 10.6227 15.9377 11.0056 16.0962C11.5161 16.3077 11.9216 16.7133 12.1331 17.2237C12.2917 17.6066 12.2917 18.0919 12.2917 19.0627C12.2917 20.0334 12.2917 20.5187 12.1331 20.9016C11.9216 21.412 11.5161 21.8177 11.0056 22.0291C10.6227 22.1877 10.1374 22.1877 9.16667 22.1877H8.125M24.7917 11.771V10.7293C24.7917 9.57874 23.859 8.646 22.7083 8.646H20.625C19.4744 8.646 18.5417 9.57874 18.5417 10.7293V11.771M11.4583 26.3543H23.5417C24.7084 26.3543 25.2919 26.3543 25.7375 26.1272C26.1295 25.9276 26.4482 25.6088 26.6479 25.2168C26.875 24.7712 26.875 24.1878 26.875 23.021V15.1043C26.875 13.9375 26.875 13.3542 26.6479 12.9085C26.4482 12.5165 26.1295 12.1978 25.7375 11.9981C25.2919 11.771 24.7084 11.771 23.5417 11.771H11.4583C10.2916 11.771 9.70817 11.771 9.26252 11.9981C8.87051 12.1978 8.5518 12.5165 8.35207 12.9085C8.125 13.3542 8.125 13.9375 8.125 15.1043V23.021C8.125 24.1878 8.125 24.7712 8.35207 25.2168C8.5518 25.6088 8.87051 25.9276 9.26252 26.1272C9.70817 26.3543 10.2916 26.3543 11.4583 26.3543ZM22.7083 19.0627C22.7083 20.7886 21.3093 22.1877 19.5833 22.1877C17.8574 22.1877 16.4583 20.7886 16.4583 19.0627C16.4583 17.3367 17.8574 15.9377 19.5833 15.9377C21.3093 15.9377 22.7083 17.3367 22.7083 19.0627Z" stroke="black" stroke-width="2" stroke-linecap="round" stroke-linejoin="round"/>
</g>
<defs>
<filter id="filter0_i_109_467" x="0" y="0" width="35" height="35" filterUnits="userSpaceOnUse" color-interpolation-filters="sRGB">
<feFlood flood-opacity="0" result="BackgroundImageFix"/>
<feBlend mode="normal" in="SourceGraphic" in2="BackgroundImageFix" result="shape"/>
<feColorMatrix in="SourceAlpha" type="matrix" values="0 0 0 0 0 0 0 0 0 0 0 0 0 0 0 0 0 0 127 0" result="hardAlpha"/>
<feOffset/>
<feGaussianBlur stdDeviation="5"/>
<feComposite in2="hardAlpha" operator="arithmetic" k2="-1" k3="1"/>
<feColorMatrix type="matrix" values="0 0 0 0 0 0 0 0 0 0 0 0 0 0 0 0 0 0 0.1 0"/>
<feBlend mode="normal" in2="shape" result="effect1_innerShadow_109_467"/>
</filter>
</defs>
</svg>
