<svg width="40" height="40" viewBox="0 0 40 40" fill="none" xmlns="http://www.w3.org/2000/svg">
<path d="M18.7818 7.35208C19.1677 6.48645 19.3607 6.05363 19.6293 5.92035C19.8627 5.80455 20.1367 5.80455 20.37 5.92035C20.6387 6.05363 20.8317 6.48645 21.2175 7.35208L24.2908 14.247C24.405 14.5029 24.462 14.6308 24.5503 14.7288C24.6283 14.8155 24.7238 14.8848 24.8303 14.9323C24.9508 14.986 25.0902 15.0007 25.3688 15.0301L32.876 15.8224C33.8185 15.9219 34.2897 15.9716 34.4995 16.1859C34.6817 16.3721 34.7663 16.6328 34.7283 16.8905C34.6847 17.1872 34.3327 17.5043 33.6287 18.1388L28.0208 23.1925C27.8128 23.38 27.7087 23.4738 27.6428 23.588C27.5845 23.6892 27.548 23.8013 27.5358 23.9173C27.522 24.0485 27.551 24.1855 27.6092 24.4597L29.1755 31.8442C29.3722 32.7713 29.4705 33.2348 29.3315 33.5005C29.2107 33.7315 28.989 33.8925 28.7322 33.936C28.4365 33.986 28.026 33.7493 27.205 33.2758L20.6658 29.5042C20.4232 29.3642 20.3018 29.2943 20.1728 29.2668C20.0587 29.2427 19.9407 29.2427 19.8265 29.2668C19.6975 29.2943 19.5762 29.3642 19.3335 29.5042L12.7944 33.2758C11.9734 33.7493 11.5629 33.986 11.2672 33.936C11.0104 33.8925 10.7887 33.7315 10.6679 33.5005C10.5289 33.2348 10.6273 32.7713 10.8239 31.8442L12.3902 24.4597C12.4483 24.1855 12.4774 24.0485 12.4636 23.9173C12.4514 23.8013 12.4149 23.6892 12.3566 23.588C12.2907 23.4738 12.1866 23.38 11.9785 23.1925L6.37078 18.1388C5.66676 17.5043 5.31474 17.1872 5.27098 16.8905C5.23298 16.6328 5.31766 16.3721 5.49989 16.1859C5.70969 15.9716 6.18094 15.9219 7.12344 15.8224L14.6306 15.0301C14.9092 15.0007 15.0485 14.986 15.169 14.9323C15.2756 14.8848 15.371 14.8155 15.4491 14.7288C15.5374 14.6308 15.5944 14.5029 15.7085 14.247L18.7818 7.35208Z" stroke="#303030" stroke-width="2" stroke-linecap="round" stroke-linejoin="round"/>
</svg>
